<mxfile host="app.diagrams.net" modified="2023-07-14T21:42:36.252Z" agent="Mozilla/5.0 (Macintosh; Intel Mac OS X 10_15_7) AppleWebKit/537.36 (KHTML, like Gecko) Chrome/114.0.0.0 Safari/537.36" version="21.6.2" etag="0OzkDu_98i7F-6cNG21X" type="github">
  <diagram name="Page-1" id="qqJHH6iEJIGOhc8ox6Ux">
    <mxGraphModel>
      <root>
        <mxCell id="0" />
        <mxCell id="1" parent="0" />
      </root>
    </mxGraphModel>
  </diagram>
</mxfile>
